<?xml version="1.0" encoding="utf-8"?>
<svg viewBox="-684.242 21.841 2264.574 468.308" width="2264.574" height="468.308" xmlns="http://www.w3.org/2000/svg">
  <g transform="matrix(1, 0, 0, 1, 34.838009, -0.250024)">
    <path d="M 704.94 250.23 C 704.94 355.96 617.035 442.01 508.99 442.01 C 463.925 442.01 422.381 427.008 389.24 401.92 C 356.117 427.008 314.573 442.01 269.51 442.01 C 161.47 442.01 73.57 355.961 73.57 250.23 C 73.57 144.49 161.472 58.49 269.51 58.49 C 314.575 58.49 356.12 73.435 389.24 98.559 C 422.383 73.435 463.927 58.49 508.99 58.49 C 617.03 58.49 704.94 144.498 704.94 250.23 Z M 508.71 75.42 C 468.963 75.42 432.269 88.164 402.62 109.67 C 429.506 134.158 449.391 165.958 458.891 201.796 L 440.731 201.796 C 431.427 170.112 413.24 142.139 388.954 120.612 C 364.694 142.139 346.494 170.112 337.225 201.796 L 319.037 201.796 C 328.56 165.958 348.444 134.158 375.331 109.67 C 345.669 88.164 308.989 75.42 269.221 75.42 C 170.7 75.42 90.831 153.58 90.831 250.02 C 90.831 346.433 170.7 424.62 269.221 424.62 C 308.988 424.62 345.668 411.876 375.331 390.372 C 350.032 367.313 330.946 337.769 320.856 304.516 L 339.22 304.516 C 348.975 333.634 366.294 359.335 388.954 379.426 C 411.639 359.335 428.98 333.634 438.736 304.516 L 457.094 304.516 C 446.987 337.771 427.906 367.314 402.619 390.372 C 432.264 411.876 468.958 424.62 508.709 424.62 C 607.23 424.62 687.099 346.435 687.099 250.02 C 687.1 153.582 607.231 75.42 508.709 75.42 Z" style="fill: rgb(255, 255, 255); stroke: rgb(255, 255, 255);"/>
    <path d="M 197.07 208.11 L 168.505 208.11 L 150.653 260.193 L 149.91 208.11 L 123.438 208.11 L 109.067 292.26 L 126.294 292.26 L 137.358 227.97 L 138.903 292.26 L 151.454 292.26 L 174.975 227.586 L 164.436 292.26 L 182.834 292.26 L 197.07 208.11 Z M 244.482 292.181 L 229.232 292.181 L 229.587 285.08 C 224.932 290.686 218.733 293.369 210.31 293.369 C 200.319 293.369 193.515 285.734 193.515 274.692 C 193.515 258.005 205.381 248.306 225.794 248.306 C 227.886 248.306 230.563 248.496 233.3 248.84 C 233.869 246.563 234.007 245.607 234.007 244.382 C 234.007 239.867 230.817 238.164 222.214 238.164 C 213.222 238.049 205.793 240.251 202.744 241.246 C 202.939 240.098 205.306 225.861 205.306 225.861 C 214.457 223.221 220.514 222.226 227.32 222.226 C 243.117 222.226 251.487 229.152 251.467 242.279 C 251.487 245.8 250.899 250.142 249.979 255.867 C 248.377 265.756 244.955 286.995 244.484 292.179 L 244.484 292.181 Z M 231.556 262.016 C 229.621 261.823 228.778 261.747 227.449 261.747 C 217.008 261.747 211.747 265.245 211.747 272.136 C 211.747 276.407 214.329 279.12 218.317 279.12 C 225.827 279.12 231.22 272.136 231.556 262.016 Z M 485.406 206.229 C 461.023 206.229 443.971 227.237 443.971 257.319 C 443.971 279.666 456.313 293.635 476.118 293.635 C 481.2 293.635 485.598 292.984 492.364 291.148 L 495.59 271.993 C 489.509 274.923 484.506 276.318 479.965 276.318 C 469.271 276.318 462.816 268.586 462.816 255.822 C 462.816 237.282 472.421 224.29 486.164 224.29 C 491.268 224.29 496.039 225.592 502.607 228.846 L 505.618 210.593 C 502.923 209.558 493.438 206.229 485.406 206.229 Z M 551.582 292.181 L 536.353 292.181 L 536.705 285.08 C 532.031 290.686 525.813 293.369 517.404 293.369 C 507.434 293.369 500.59 285.734 500.59 274.692 C 500.59 258.005 512.498 248.306 532.89 248.306 C 534.983 248.306 537.662 248.496 540.403 248.84 C 540.965 246.563 541.104 245.607 541.104 244.382 C 541.104 239.867 537.917 238.164 529.331 238.164 C 520.32 238.049 512.911 240.251 509.858 241.246 C 510.035 240.098 512.402 225.861 512.402 225.861 C 521.57 223.221 527.63 222.226 534.395 222.226 C 550.215 222.226 558.585 229.152 558.564 242.279 C 558.602 245.8 557.998 250.142 557.078 255.867 C 555.495 265.756 552.057 286.995 551.584 292.179 L 551.584 292.181 Z M 538.649 262.016 C 536.733 261.823 535.873 261.747 534.523 261.747 C 524.101 261.747 518.821 265.245 518.821 272.136 C 518.821 276.407 521.404 279.12 525.433 279.12 C 532.923 279.12 538.337 272.136 538.649 262.016 Z M 335.019 276.322 C 333.787 276.745 332.165 276.971 330.073 276.971 C 325.694 276.971 323.759 275.444 323.759 271.901 C 323.799 269.722 326.829 253.534 328.942 240.54 L 338.381 240.54 L 340.886 224.084 L 331.48 224.084 L 333.611 213.756 L 315.329 213.756 C 315.329 213.756 308.41 254.033 307.374 260.403 C 306.2 267.694 304.716 275.635 304.83 278.657 C 304.83 288.398 309.954 293.699 319.356 293.699 C 323.623 293.699 327.546 293.008 332.597 291.479 L 335.019 276.322 Z M 391.225 290.612 C 384.93 292.489 378.865 293.369 372.455 293.369 C 351.961 293.326 341.289 282.864 341.289 262.83 C 341.289 239.446 354.876 222.225 373.314 222.225 C 388.388 222.225 398.03 231.85 398.03 247.003 C 398.03 252.016 397.345 256.896 395.759 263.843 L 359.353 263.843 C 358.122 273.734 364.616 277.867 375.252 277.867 C 381.798 277.867 387.686 276.565 394.255 273.582 L 391.225 290.612 Z M 381.638 250.471 C 381.756 249.055 383.571 238.222 373.131 238.222 C 367.303 238.222 363.121 242.606 361.442 250.471 L 381.638 250.471 Z M 259.048 245.378 C 259.048 254.047 263.308 259.998 273.046 264.495 C 280.496 267.938 281.649 268.933 281.649 272.055 C 281.649 276.298 278.364 278.214 271.071 278.214 C 265.597 278.214 260.474 277.408 254.587 275.536 C 254.587 275.536 252.166 290.613 252.047 291.342 C 256.252 292.224 259.965 293.06 271.208 293.37 C 290.621 293.37 299.579 286.116 299.579 270.503 C 299.579 261.071 295.843 255.598 286.612 251.442 C 278.912 247.96 278.012 247.196 278.012 244.001 C 278.012 240.288 281.081 238.413 287.044 238.413 C 290.64 238.413 295.587 238.797 300.241 239.448 L 302.863 223.565 C 298.091 222.838 290.878 222.226 286.673 222.226 C 266.085 222.225 258.969 232.73 259.048 245.378 Z M 655.148 292.261 L 637.73 292.261 L 638.609 285.892 C 633.544 291.156 628.366 293.451 621.639 293.451 C 608.263 293.451 599.427 282.18 599.427 265.074 C 599.427 242.282 613.13 223.111 629.357 223.111 C 636.478 223.111 641.91 225.943 646.939 232.431 L 651.004 208.112 L 669.151 208.112 L 655.148 292.261 Z M 628.048 276.578 C 636.61 276.578 642.652 267.064 642.652 253.517 C 642.652 244.811 639.232 240.103 632.892 240.103 C 624.544 240.103 618.62 249.614 618.62 263.066 C 618.62 272.041 621.791 276.578 628.048 276.578 Z M 571.466 223.906 C 569.16 245.07 565.072 266.519 561.886 287.721 L 561.044 292.331 L 579.424 292.331 C 586.013 250.486 587.614 242.315 597.919 243.347 C 599.559 234.756 602.609 227.277 604.916 223.489 C 597.199 221.916 592.893 226.204 587.285 234.299 C 587.732 230.777 588.535 227.39 588.36 223.906 L 571.466 223.906 Z M 410.276 223.906 C 407.964 245.07 403.86 266.519 400.673 287.721 L 399.83 292.331 L 418.228 292.331 C 424.818 250.486 426.401 242.315 436.704 243.347 C 438.366 234.756 441.435 227.277 443.706 223.489 C 436.02 221.916 431.685 226.204 426.068 234.299 C 426.518 230.777 427.317 227.39 427.163 223.906 L 410.276 223.906 Z" style="fill: rgb(255, 255, 255);"/>
  </g>
  <g transform="matrix(1, 0, 0, 1, 34.838009, -0.250024)">
    <path d="M -441.225 349.137 L -407.866 153.377 L -354.508 153.377 L -387.892 349.137 L -441.225 349.137 Z M -195.115 157.597 C -205.684 153.631 -222.25 149.375 -242.936 149.375 C -295.662 149.375 -332.799 175.926 -333.117 213.979 C -333.414 242.108 -306.602 257.801 -286.363 267.164 C -265.592 276.762 -258.611 282.88 -258.711 291.447 C -258.844 304.57 -275.297 310.562 -290.635 310.562 C -311.99 310.562 -323.336 307.595 -340.86 300.289 L -347.738 297.178 L -355.225 341 C -342.762 346.467 -319.717 351.199 -295.787 351.445 C -239.697 351.445 -203.285 325.197 -202.871 284.56 C -202.672 262.29 -216.887 245.345 -247.672 231.372 C -266.322 222.316 -277.744 216.273 -277.623 207.103 C -277.623 198.966 -267.955 190.265 -247.063 190.265 C -229.617 189.994 -216.975 193.799 -207.127 197.765 L -202.346 200.024 L -195.115 157.597 M -57.805 153.374 L -99.035 153.374 C -111.807 153.374 -121.367 156.86 -126.975 169.608 L -206.22 349.008 L -150.189 349.008 C -150.189 349.008 -141.03 324.887 -138.958 319.59 C -132.835 319.59 -78.403 319.674 -70.622 319.674 C -69.026 326.528 -64.13 349.008 -64.13 349.008 L -14.618 349.008 L -57.805 153.368 Z M -123.222 279.784 C -118.808 268.505 -101.962 225.06 -101.962 225.06 C -102.276 225.581 -97.581 213.726 -94.888 206.376 L -91.282 223.254 C -91.282 223.254 -81.065 269.983 -78.929 279.781 L -123.222 279.781 L -123.222 279.784 Z M -486.522 153.374 L -538.761 286.874 L -544.326 259.745 C -554.052 228.471 -584.351 194.588 -618.224 177.625 L -570.457 348.825 L -514.002 348.762 L -429.998 153.372 L -486.522 153.371" style="fill: rgb(255, 255, 255);"/>
    <path d="M -587.505 153.367 L -673.546 153.367 L -674.228 157.44 C -607.289 173.644 -562.998 212.803 -544.608 259.86 L -563.317 169.9 C -566.546 157.504 -575.914 153.804 -587.503 153.372" style="fill: rgb(255, 255, 255);"/>
  </g>
  <g transform="matrix(1, 0, 0, 1, 28.997715, 5.76071)">
    <path d="M 924.778 183.098 C 916.379 177.324 905.419 174.43 891.898 174.43 L 839.552 174.43 C 835.407 174.43 833.117 176.503 832.682 180.645 L 811.418 314.125 C 811.197 315.436 811.525 316.635 812.399 317.725 C 813.268 318.817 814.361 319.36 815.67 319.36 L 840.534 319.36 C 844.895 319.36 847.292 317.292 847.732 313.145 L 853.62 277.159 C 853.835 275.415 854.602 273.997 855.911 272.905 C 857.219 271.815 858.855 271.102 860.818 270.776 C 862.781 270.452 864.632 270.288 866.38 270.288 C 868.123 270.288 870.194 270.399 872.597 270.616 C 874.994 270.833 876.522 270.94 877.177 270.94 C 895.933 270.94 910.655 265.655 921.344 255.073 C 932.028 244.497 937.376 229.831 937.376 211.069 C 937.376 198.201 933.173 188.878 924.778 183.095 Z M 897.789 223.178 C 896.695 230.813 893.863 235.827 889.283 238.227 C 884.702 240.63 878.159 241.826 869.654 241.826 L 858.857 242.152 L 864.42 207.145 C 864.854 204.748 866.271 203.548 868.672 203.548 L 874.89 203.548 C 883.61 203.548 889.939 204.805 893.865 207.309 C 897.789 209.819 899.098 215.11 897.789 223.178 Z" style="fill: rgb(255, 255, 255);"/>
    <path d="M 1477.188 174.428 L 1452.981 174.428 C 1450.575 174.428 1449.159 175.628 1448.727 178.029 L 1427.461 314.129 L 1427.133 314.783 C 1427.133 315.879 1427.569 316.91 1428.444 317.892 C 1429.311 318.872 1430.407 319.363 1431.714 319.363 L 1453.31 319.363 C 1457.447 319.363 1459.738 317.295 1460.181 313.148 L 1481.445 179.338 L 1481.445 179.013 C 1481.444 175.958 1480.022 174.432 1477.188 174.432 Z" style="fill: rgb(255, 255, 255);"/>
    <path d="M 1184.708 227.108 C 1184.708 226.02 1184.27 224.982 1183.403 224.003 C 1182.528 223.022 1181.546 222.528 1180.458 222.528 L 1155.267 222.528 C 1152.863 222.528 1150.9 223.624 1149.376 225.799 L 1114.698 276.838 L 1100.303 227.764 C 1099.207 224.277 1096.811 222.528 1093.106 222.528 L 1068.565 222.528 C 1067.472 222.528 1066.491 223.02 1065.624 224.003 C 1064.749 224.982 1064.315 226.022 1064.315 227.108 C 1064.315 227.547 1066.442 233.979 1070.694 246.411 C 1074.946 258.847 1079.526 272.261 1084.434 286.657 C 1089.342 301.05 1091.903 308.688 1092.122 309.553 C 1074.236 333.985 1065.297 347.071 1065.297 348.813 C 1065.297 351.651 1066.712 353.067 1069.55 353.067 L 1094.741 353.067 C 1097.139 353.067 1099.101 351.979 1100.631 349.797 L 1184.058 229.397 C 1184.491 228.965 1184.708 228.205 1184.708 227.107 Z" style="fill: rgb(255, 255, 255);"/>
    <path d="M 1419.288 222.528 L 1394.423 222.528 C 1391.366 222.528 1389.519 226.128 1388.864 233.327 C 1383.186 224.605 1372.833 220.238 1357.78 220.238 C 1342.077 220.238 1328.716 226.128 1317.704 237.906 C 1306.688 249.684 1301.183 263.538 1301.183 279.458 C 1301.183 292.329 1304.945 302.579 1312.468 310.21 C 1319.993 317.849 1330.079 321.661 1342.734 321.661 C 1349.058 321.661 1355.492 320.35 1362.035 317.735 C 1368.578 315.118 1373.699 311.63 1377.414 307.266 C 1377.414 307.485 1377.191 308.463 1376.76 310.207 C 1376.319 311.955 1376.104 313.268 1376.104 314.133 C 1376.104 317.627 1377.518 319.367 1380.358 319.367 L 1402.934 319.367 C 1407.073 319.367 1409.475 317.299 1410.127 313.152 L 1423.543 227.762 C 1423.758 226.452 1423.432 225.255 1422.561 224.163 C 1421.684 223.075 1420.596 222.528 1419.288 222.528 Z M 1376.594 286.982 C 1371.032 292.435 1364.324 295.16 1356.473 295.16 C 1350.145 295.16 1345.024 293.418 1341.096 289.926 C 1337.168 286.444 1335.205 281.645 1335.205 275.531 C 1335.205 267.467 1337.932 260.645 1343.387 255.084 C 1348.832 249.522 1355.6 246.742 1363.67 246.742 C 1369.772 246.742 1374.844 248.541 1378.883 252.138 C 1382.914 255.738 1384.938 260.7 1384.938 267.027 C 1384.936 274.878 1382.155 281.532 1376.594 286.982 Z" style="fill: rgb(255, 255, 255);"/>
    <path d="M 1047.628 222.528 L 1022.763 222.528 C 1019.705 222.528 1017.855 226.128 1017.2 233.327 C 1011.311 224.605 1000.95 220.238 986.119 220.238 C 970.415 220.238 957.054 226.128 946.041 237.906 C 935.025 249.684 929.52 263.538 929.52 279.458 C 929.52 292.329 933.283 302.579 940.808 310.21 C 948.333 317.849 958.418 321.661 971.07 321.661 C 977.174 321.661 983.503 320.35 990.045 317.735 C 996.588 315.118 1001.823 311.63 1005.749 307.266 C 1004.874 309.881 1004.44 312.172 1004.44 314.133 C 1004.44 317.627 1005.857 319.367 1008.693 319.367 L 1031.267 319.367 C 1035.408 319.367 1037.81 317.299 1038.465 313.152 L 1051.878 227.762 C 1052.093 226.452 1051.767 225.255 1050.897 224.163 C 1050.024 223.075 1048.935 222.528 1047.628 222.528 Z M 1004.933 287.144 C 999.37 292.494 992.551 295.16 984.486 295.16 C 978.157 295.16 973.086 293.418 969.272 289.926 C 965.453 286.444 963.546 281.645 963.546 275.531 C 963.546 267.467 966.271 260.645 971.726 255.084 C 977.175 249.522 983.937 246.741 992.01 246.741 C 998.114 246.741 1003.185 248.541 1007.224 252.138 C 1011.256 255.738 1013.276 260.7 1013.276 267.027 C 1013.275 275.097 1010.495 281.806 1004.933 287.144 Z" style="fill: rgb(255, 255, 255);"/>
    <path d="M 1296.438 183.098 C 1288.04 177.324 1277.083 174.43 1263.559 174.43 L 1211.539 174.43 C 1207.176 174.43 1204.775 176.503 1204.342 180.645 L 1183.076 314.125 C 1182.855 315.436 1183.183 316.635 1184.058 317.725 C 1184.923 318.817 1186.019 319.36 1187.328 319.36 L 1214.154 319.36 C 1216.771 319.36 1218.515 317.944 1219.39 315.108 L 1225.279 277.159 C 1225.496 275.415 1226.259 273.997 1227.57 272.905 C 1228.879 271.815 1230.513 271.102 1232.478 270.776 C 1234.439 270.452 1236.29 270.288 1238.039 270.288 C 1239.783 270.288 1241.853 270.399 1244.254 270.616 C 1246.652 270.833 1248.184 270.94 1248.834 270.94 C 1267.594 270.94 1282.313 265.655 1293.002 255.073 C 1303.69 244.497 1309.033 229.831 1309.033 211.069 C 1309.034 198.201 1304.833 188.877 1296.438 183.095 Z M 1262.905 236.917 C 1258.106 240.188 1250.907 241.823 1241.313 241.823 L 1230.842 242.151 L 1236.404 207.143 C 1236.836 204.747 1238.254 203.545 1240.656 203.545 L 1246.543 203.545 C 1251.342 203.545 1255.158 203.764 1257.998 204.199 C 1260.828 204.637 1263.559 205.998 1266.176 208.287 C 1268.795 210.578 1270.102 213.906 1270.102 218.266 C 1270.102 227.43 1267.7 233.643 1262.905 236.917 Z" style="fill: rgb(255, 255, 255);"/>
  </g>
</svg>